<?xml version="1.0" encoding="UTF-8"?>
<svg id="Layer_2" data-name="Layer 2" xmlns="http://www.w3.org/2000/svg" viewBox="0 0 168 168">
  <g id="Layer_1-2" data-name="Layer 1">
    <g>
      <path class="cls-1" d="m84,8c41.91,0,76,34.09,76,76s-34.09,76-76,76S8,125.91,8,84,42.09,8,84,8m0-8C37.61,0,0,37.61,0,84s37.61,84,84,84,84-37.61,84-84S130.39,0,84,0h0Z"/>
      <g>
        <path class="cls-1" d="m75.8,74.34l-.8.8c-2.61,2.62-4.33,4.35-5.4,6.08l-.34-.2c-.53.53-1.16,1.16-1.87,1.87l-.7-.7c-3.99-3.99-8.86-8.86-13.49-13.5h-23.51v-12h25c.4,0,.8.01,1.2.02l2.38.07,16.82,16.85.71.71Z"/>
        <path class="cls-1" d="m88.1,86.79c-2.4,2.4-3.94,3.95-4.1,4.11-.84.95-2.08,2.21-3.95,4.08l-.36.36-.36-.36c-1.87-1.87-3.11-3.13-3.95-4.08-.16-.16-1.7-1.71-4.1-4.11,1.82-1.82,3.14-3.16,3.66-3.72-.1.12-.22.3-.36.53.71-.96,1.99-2.25,4.32-4.57l.79-.79.79.79c2.33,2.32,3.61,3.61,4.32,4.57-.14-.23-.26-.41-.36-.53.52.56,1.84,1.9,3.66,3.72Z"/>
        <path class="cls-1" d="m129.69,105.69v12h-27.46l-1.75-1.73s-6.26-6.17-12.52-12.38c-1.24-1.23-2.48-2.46-3.67-3.64-.24-.24-.48-.48-.71-.71l.37-.37c1.62-1.63,2.91-2.92,3.94-4.09l.35-.39.03.03c.62-.63,1.97-1.98,3.72-3.73.23.22.47.46.71.7,4.48,4.46,9.97,9.89,14.45,14.31h22.54Z"/>
      </g>
      <polygon class="cls-1" points="115.19 129.05 145.24 111.69 115.19 94.34 115.19 129.05"/>
      <path class="cls-1" d="m129.69,56.69v12h-23.51c-6.64,6.65-13.75,13.76-18.08,18.1-2.4,2.4-3.94,3.95-4.1,4.11-.84.95-2.08,2.21-3.95,4.08l-.36.36c-2.31,2.32-5.29,5.29-8.27,8.24-6.26,6.21-12.52,12.38-12.52,12.38l-1.75,1.73h-27.46v-12h22.54c6.2-6.11,14.32-14.15,19.05-18.9,1.82-1.82,3.14-3.16,3.66-3.72-.1.12-.22.3-.36.53.71-.96,1.99-2.25,4.32-4.57l.79-.79,21.42-21.46,2.38-.07c.4,0,.8-.02,1.2-.02h25Z"/>
      <polygon class="cls-1" points="145.24 62.69 130.19 71.38 129.19 71.96 125.32 74.19 123.59 75.19 115.19 80.04 115.19 45.34 123.59 50.19 125.32 51.19 129.19 53.42 130.19 54 145.24 62.69"/>
    </g>
  </g>
</svg>